<svg width="24" height="24" viewBox="0 0 24 24" fill="none" xmlns="http://www.w3.org/2000/svg">
<g clip-path="url(#clip0_142_21242)">
<path d="M0 4H24V20.0002H0V4Z" fill="#F0F0F0"/>
<path d="M10.5 4H13.5V10.5H24V13.5H13.5V19.9999H10.5V13.5H0V10.5H10.5V4Z" fill="#D80027"/>
<path d="M5.54199 14.7822L0.000659943 17.8608V14.7822H5.54199Z" fill="#0052B4"/>
<path d="M9.3916 14.7822L0.000292778 19.9996V18.5243L6.7359 14.7822H9.3916Z" fill="#0052B4"/>
<path d="M2.50182 19.9989L9.3916 16.1709V19.9989H2.50182Z" fill="#0052B4"/>
<path d="M9.3916 14.7822L0.000292778 19.9996V18.5243L6.7359 14.7822H9.3916Z" fill="#F0F0F0"/>
<path d="M9.3916 14.7822L0.000292778 19.9996V18.5243L6.7359 14.7822H9.3916Z" fill="#D80027"/>
<path d="M19.7653 14.7822L24 17.1349V14.7822H19.7653Z" fill="#0052B4"/>
<path d="M14.6083 15.4453V19.9993H22.8047L14.6083 15.4453Z" fill="#0052B4"/>
<path d="M17.2644 14.7822L24 18.5243V19.9996L14.6087 14.7822H17.2644Z" fill="#D80027"/>
<path d="M18.4587 9.21724L24 6.13867V9.21724H18.4587Z" fill="#0052B4"/>
<path d="M14.6087 9.21737L24 4V5.47534L17.2644 9.21737H14.6087Z" fill="#0052B4"/>
<path d="M21.498 4L14.6083 7.828V4H21.498Z" fill="#0052B4"/>
<path d="M14.6087 9.21737L24 4V5.47534L17.2644 9.21737H14.6087Z" fill="#F0F0F0"/>
<path d="M14.6087 9.21737L24 4V5.47534L17.2644 9.21737H14.6087Z" fill="#D80027"/>
<path d="M4.23438 9.21789L-0.000358582 6.86523V9.21789H4.23438Z" fill="#0052B4"/>
<path d="M9.3916 8.55395V4H1.19518L9.3916 8.55395Z" fill="#0052B4"/>
<path d="M6.7359 9.21737L0.000292778 5.47534V4L9.3916 9.21737H6.7359Z" fill="#D80027"/>
</g>
<defs>
<clipPath id="clip0_142_21242">
<rect width="24" height="24" fill="white" transform="matrix(-1 0 0 1 24 0)"/>
</clipPath>
</defs>
</svg>
