<svg width="16" height="20" viewBox="0 0 16 20" fill="none" xmlns="http://www.w3.org/2000/svg">
<path d="M13 0H3C2.20435 0 1.44129 0.316071 0.87868 0.87868C0.316071 1.44129 0 2.20435 0 3V17C0 17.7956 0.316071 18.5587 0.87868 19.1213C1.44129 19.6839 2.20435 20 3 20H13C13.7956 20 14.5587 19.6839 15.1213 19.1213C15.6839 18.5587 16 17.7956 16 17V3C16 2.20435 15.6839 1.44129 15.1213 0.87868C14.5587 0.316071 13.7956 0 13 0ZM14 17C14 17.2652 13.8946 17.5196 13.7071 17.7071C13.5196 17.8946 13.2652 18 13 18H3C2.73478 18 2.48043 17.8946 2.29289 17.7071C2.10536 17.5196 2 17.2652 2 17V3C2 2.73478 2.10536 2.48043 2.29289 2.29289C2.48043 2.10536 2.73478 2 3 2H13C13.2652 2 13.5196 2.10536 13.7071 2.29289C13.8946 2.48043 14 2.73478 14 3V17ZM10.38 8.8C10.7766 8.28323 10.9942 7.6514 11 7C11 6.20435 10.6839 5.44129 10.1213 4.87868C9.55871 4.31607 8.79565 4 8 4C7.20435 4 6.44129 4.31607 5.87868 4.87868C5.31607 5.44129 5 6.20435 5 7C5.00576 7.6514 5.22339 8.28323 5.62 8.8C4.94354 9.30079 4.44228 10.0022 4.18756 10.8044C3.93285 11.6066 3.93768 12.4687 4.20134 13.268C4.46501 14.0673 4.97408 14.763 5.6561 15.2562C6.33813 15.7494 7.15834 16.0149 8 16.0149C8.84166 16.0149 9.66187 15.7494 10.3439 15.2562C11.0259 14.763 11.535 14.0673 11.7987 13.268C12.0623 12.4687 12.0671 11.6066 11.8124 10.8044C11.5577 10.0022 11.0565 9.30079 10.38 8.8ZM8 6C8.19778 6 8.39112 6.05865 8.55557 6.16853C8.72002 6.27841 8.84819 6.43459 8.92388 6.61732C8.99957 6.80004 9.01937 7.00111 8.98079 7.19509C8.9422 7.38907 8.84696 7.56725 8.70711 7.70711C8.56725 7.84696 8.38907 7.9422 8.19509 7.98079C8.00111 8.01937 7.80004 7.99957 7.61732 7.92388C7.43459 7.84819 7.27841 7.72002 7.16853 7.55557C7.05865 7.39112 7 7.19778 7 7C7 6.73478 7.10536 6.48043 7.29289 6.29289C7.48043 6.10536 7.73478 6 8 6ZM8 14C7.60444 14 7.21776 13.8827 6.88886 13.6629C6.55996 13.4432 6.30362 13.1308 6.15224 12.7654C6.00087 12.3999 5.96126 11.9978 6.03843 11.6098C6.1156 11.2219 6.30608 10.8655 6.58579 10.5858C6.86549 10.3061 7.22186 10.1156 7.60982 10.0384C7.99778 9.96126 8.39991 10.0009 8.76537 10.1522C9.13082 10.3036 9.44318 10.56 9.66294 10.8889C9.8827 11.2178 10 11.6044 10 12C10 12.5304 9.78929 13.0391 9.41421 13.4142C9.03914 13.7893 8.53043 14 8 14Z" fill="#5B5B5B"/>
</svg>
