<svg width="14" height="14" viewBox="0 0 14 14" fill="none" xmlns="http://www.w3.org/2000/svg">
<path d="M13.926 13.5533L10.1098 9.7371C12.2757 7.36543 12.1088 3.68707 9.73711 1.52123C7.36543 -0.644618 3.68707 -0.477736 1.52123 1.89393C-0.644618 4.26561 -0.477736 7.94397 1.89394 10.1098C4.11494 12.1381 7.51611 12.1381 9.73711 10.1098L13.5533 13.926C13.658 14.0271 13.8248 14.0242 13.926 13.9195C14.0247 13.8174 14.0247 13.6554 13.926 13.5533ZM5.83209 11.1038C2.92202 11.1005 0.563721 8.74217 0.560393 5.83209C0.560393 2.9206 2.9206 0.560393 5.83209 0.560393C8.74359 0.560393 11.1038 2.9206 11.1038 5.83209C11.1038 8.74358 8.74359 11.1038 5.83209 11.1038Z" fill="white"/>
</svg>
