<svg width="14" height="8" viewBox="0 0 14 8" fill="none" xmlns="http://www.w3.org/2000/svg">
<path d="M6.98902 7.49763C6.75578 7.49809 6.52974 7.41676 6.35014 7.26775L0.360621 2.27034C0.156761 2.10069 0.0285612 1.8569 0.00422411 1.59261C-0.020113 1.32832 0.0614062 1.06518 0.230848 0.861065C0.40029 0.656954 0.643776 0.528596 0.90774 0.504229C1.1717 0.479862 1.43452 0.561481 1.63838 0.731132L6.98902 5.20882L12.3397 0.89105C12.4418 0.808027 12.5593 0.746028 12.6854 0.708615C12.8115 0.671203 12.9438 0.659115 13.0746 0.673047C13.2054 0.686979 13.3321 0.726656 13.4475 0.789797C13.563 0.852938 13.6648 0.938299 13.7472 1.04097C13.8386 1.14374 13.9079 1.2643 13.9506 1.39511C13.9933 1.52592 14.0086 1.66415 13.9954 1.80114C13.9823 1.93813 13.9411 2.07093 13.8743 2.19123C13.8076 2.31152 13.7167 2.41672 13.6074 2.50022L7.61792 7.32772C7.43316 7.45317 7.21173 7.513 6.98902 7.49763Z" fill="#EAEAEA"/>
</svg>
