<svg width="24" height="25" viewBox="0 0 24 25" fill="none" xmlns="http://www.w3.org/2000/svg">
<path fill-rule="evenodd" clip-rule="evenodd" d="M12.9993 24C6.93308 24 2 19.0664 2 13C2 6.93358 6.93308 2 12.9993 2C19.0654 2 24 6.93358 24 13C24 19.0664 19.0654 24 12.9993 24ZM13.0228 3.26593C10.4654 3.26906 8.01373 4.29406 6.20542 6.1161C4.39712 7.93814 3.37985 10.4085 3.37674 12.9852C3.37946 15.5622 4.39656 18.0329 6.20491 19.8553C8.01325 21.6776 10.4652 22.7028 13.0228 22.706C15.5806 22.7032 18.0329 21.6782 19.8415 19.8558C21.6502 18.0334 22.6675 15.5625 22.6702 12.9852C22.6671 10.4082 21.6496 7.93766 19.841 6.11558C18.0324 4.2935 15.5803 3.26867 13.0228 3.26593Z" fill="#EAEAEA"/>
<path fill-rule="evenodd" clip-rule="evenodd" d="M12 2.5H13V23.5H12V2.5Z" fill="#EAEAEA"/>
<path fill-rule="evenodd" clip-rule="evenodd" d="M3 12H23V13H3V12Z" fill="#EAEAEA"/>
<path fill-rule="evenodd" clip-rule="evenodd" d="M4 8H22V9H4V8Z" fill="#EAEAEA"/>
<path fill-rule="evenodd" clip-rule="evenodd" d="M4 17H22V18H4V17Z" fill="#EAEAEA"/>
<path fill-rule="evenodd" clip-rule="evenodd" d="M12.3466 24C8.49024 22.1082 6 17.7703 6 12.948C6 8.2371 8.41005 3.93934 12.1447 2L12.8292 3.31816C9.58167 5.00784 7.48494 8.78695 7.48494 12.948C7.48494 17.2056 9.65146 21.0204 13 22.664L12.3466 24Z" fill="#EAEAEA"/>
<path fill-rule="evenodd" clip-rule="evenodd" d="M13.7262 24L13 22.679C16.3119 20.9826 18.4517 17.1723 18.4517 12.9716C18.4517 8.82021 16.3475 5.02788 13.0944 3.31198L13.8361 2C17.58 3.97171 20 8.27866 20 12.9716C20.0015 17.7213 17.5366 22.0492 13.7262 24Z" fill="#EAEAEA"/>
</svg>
